<svg width="343" height="291" viewBox="0 0 343 291" fill="none" xmlns="http://www.w3.org/2000/svg">
<path d="M184.94 6.27615C203.988 -1.74882 225.403 -2.09042 244.697 5.32401C263.991 12.7386 279.667 27.3334 288.439 46.0496C296.716 63.7099 298.238 83.7458 292.8 102.393C297.93 103.062 302.936 104.453 307.814 106.507C315.752 109.849 322.837 114.931 328.547 121.379C334.256 127.826 338.446 135.474 340.803 143.758C343.161 152.041 343.628 160.748 342.17 169.236C340.711 177.724 337.365 185.776 332.378 192.798C327.39 199.819 320.89 205.63 313.355 209.803C305.821 213.975 297.445 216.401 288.847 216.902C282.487 217.273 276.125 216.582 270.018 214.875C268.152 223.507 262.649 231.03 254.834 235.404C255.001 236.797 255.086 238.203 255.086 239.606C255.086 254.819 245.162 268.269 230.764 272.853C224.502 283.571 213.094 290.164 200.621 290.164C186.946 290.164 175.088 282.26 169.358 270.784C163.628 282.26 151.771 290.164 138.096 290.164C125.623 290.164 114.215 283.571 107.952 272.853C93.5544 268.269 83.6316 254.819 83.6316 239.606C83.6316 238.203 83.716 236.797 83.8835 235.404C76.008 230.996 70.4795 223.391 68.655 214.676C61.6772 216.213 54.466 216.415 47.4041 215.263C39.7881 214.021 32.5071 211.231 26.0105 207.067C19.5139 202.903 13.9388 197.452 9.62964 191.051C5.32071 184.649 2.36899 177.433 0.955811 169.847C-0.457375 162.261 -0.302258 154.466 1.41284 146.942C3.12797 139.419 6.36603 132.325 10.9275 126.101C15.4889 119.877 21.2775 114.654 27.9353 110.753C32.4333 108.117 36.9721 106.16 41.8054 104.879C39.8325 92.2016 41.5075 79.1912 46.6853 67.3865C52.4527 54.2377 62.2622 43.2699 74.6892 36.0779C87.1163 28.886 101.514 25.8442 115.788 27.3943C127.242 28.6382 138.136 32.7902 147.468 39.3885C155.829 24.1672 168.368 13.2582 184.94 6.27615ZM153.727 71.3269C146.378 71.3269 137.172 74.5659 127.822 80.2713C134.493 81.8759 140.286 86.4062 143.346 92.7088C144.231 94.5287 143.472 96.7205 141.652 97.6043C139.833 98.4889 137.64 97.7303 136.756 95.9099C134.074 90.3882 128.598 86.9588 122.465 86.9588C120.485 86.9588 118.59 87.3257 116.841 87.991C116.634 88.0984 116.42 88.1839 116.202 88.2488C110.554 90.6834 106.59 96.3034 106.59 102.834C106.59 105.726 107.36 108.513 108.826 110.965C125.004 111.996 137.852 125.479 137.852 141.912C137.852 143.936 136.211 145.575 134.188 145.575C132.165 145.575 130.525 143.936 130.525 141.912C130.525 128.849 119.897 118.22 106.834 118.22C93.7705 118.22 83.1423 128.849 83.1423 141.912C83.1424 144.962 83.7288 147.954 84.8855 150.804C85.4839 152.279 85.0618 153.972 83.8406 154.993C78.4302 159.515 75.3269 166.143 75.3269 173.175C75.3272 186.238 85.9552 196.865 99.0183 196.865C101.042 196.865 102.681 198.505 102.681 200.529C102.681 202.553 101.041 204.192 99.0183 204.192C91.1715 204.192 84.0009 201.257 78.532 196.435C76.4291 200.033 75.3269 204.095 75.3269 208.345C75.327 217.687 80.8564 226.183 89.4138 229.987C90.9842 230.686 91.8582 232.381 91.5154 234.065C91.1456 235.881 90.9588 237.745 90.9587 239.606C90.9587 252.043 99.355 262.99 111.378 266.225C112.363 266.491 113.192 267.154 113.668 268.057C118.464 277.173 127.824 282.837 138.096 282.837C153.314 282.837 165.695 270.456 165.695 255.238C165.695 242.795 157.293 231.848 145.263 228.616C143.31 228.091 142.151 226.081 142.677 224.127C143.202 222.173 145.211 221.017 147.165 221.54C154.718 223.569 161.14 228.005 165.695 233.882V145.819C165.695 139.22 160.326 133.852 153.727 133.852C151.704 133.852 150.064 132.212 150.064 130.188C150.064 128.165 151.704 126.525 153.727 126.525C158.246 126.525 162.403 128.091 165.695 130.702V83.2947C165.695 76.6954 160.326 71.3269 153.727 71.3269ZM184.99 71.3269C178.391 71.3269 173.022 76.6954 173.022 83.2947V115.07C176.314 112.459 180.472 110.893 184.99 110.893C187.013 110.893 188.653 112.534 188.653 114.557C188.653 116.581 187.013 118.22 184.99 118.22C178.391 118.22 173.022 123.589 173.022 130.188V251.192C173.022 251.533 172.971 251.862 172.885 252.175C172.974 253.186 173.022 254.208 173.022 255.238C173.022 270.456 185.403 282.837 200.621 282.837C210.893 282.837 220.253 277.173 225.049 268.058C225.523 267.155 226.354 266.491 227.339 266.225C239.361 262.99 247.759 252.044 247.759 239.607C247.759 237.746 247.571 235.882 247.201 234.066C246.858 232.382 247.732 230.686 249.302 229.987C257.86 226.182 263.39 217.687 263.39 208.345C263.39 204.095 262.289 200.033 260.185 196.435C254.716 201.257 247.546 204.192 239.699 204.192C237.676 204.192 236.035 202.553 236.035 200.529C236.035 198.505 237.676 196.865 239.699 196.865C252.762 196.865 263.39 186.238 263.39 173.175C263.39 166.143 260.287 159.515 254.878 154.993C253.657 153.972 253.233 152.28 253.832 150.804C254.988 147.954 255.574 144.962 255.574 141.912C255.574 128.849 244.947 118.221 231.884 118.22C218.82 118.22 208.192 128.849 208.192 141.912C208.192 143.935 206.552 145.575 204.529 145.575C202.506 145.575 200.865 143.936 200.865 141.912C200.865 125.479 213.713 111.997 229.89 110.965C231.357 108.513 232.128 105.726 232.128 102.834C232.128 96.3029 228.162 90.6824 222.513 88.2478C222.296 88.1829 222.083 88.0983 221.877 87.991C220.127 87.3257 218.231 86.9588 216.252 86.9588C210.118 86.9589 204.643 90.3883 201.962 95.9099C201.077 97.7304 198.885 98.4884 197.065 97.6043C195.245 96.721 194.486 94.5292 195.37 92.7088C198.431 86.406 204.224 81.8754 210.895 80.2713C201.545 74.566 192.34 71.327 184.99 71.3269ZM142.004 200.773C144.027 200.773 145.668 202.413 145.668 204.436C145.668 206.46 144.027 208.1 142.004 208.1C128.941 208.101 118.313 218.728 118.313 231.791C118.313 232.629 118.357 233.469 118.444 234.299C129.81 238.905 137.852 250.055 137.852 263.053C137.852 265.077 136.211 266.717 134.188 266.717C132.165 266.717 130.525 265.077 130.525 263.053C130.525 249.99 119.897 239.362 106.834 239.362C104.811 239.362 103.171 237.723 103.171 235.699C103.171 233.675 104.81 232.035 106.834 232.035C108.245 232.035 109.633 232.139 110.995 232.323C110.992 232.146 110.986 231.968 110.986 231.791C110.986 214.688 124.9 200.773 142.004 200.773ZM184.99 192.958C202.093 192.958 216.007 206.872 216.008 223.975C216.008 224.152 216.002 224.329 215.999 224.507C217.361 224.323 218.748 224.22 220.16 224.22C222.183 224.22 223.823 225.86 223.823 227.884C223.823 229.907 222.183 231.547 220.16 231.547C207.097 231.547 196.469 242.175 196.469 255.238C196.468 257.262 194.829 258.901 192.805 258.901C190.782 258.901 189.141 257.262 189.141 255.238C189.141 242.239 197.183 231.09 208.55 226.483C208.637 225.653 208.68 224.813 208.68 223.975C208.68 210.912 198.053 200.285 184.99 200.285C182.967 200.285 181.326 198.645 181.326 196.621C181.326 194.597 182.967 192.958 184.99 192.958ZM241.254 14.2849C224.275 7.76015 205.429 8.06076 188.667 15.1228C171.904 22.1849 157.691 35.7923 150.5 52.4998L146.994 49.2635C137.939 41.5579 126.766 36.7342 114.913 35.4471C102.352 34.083 89.6826 36.7598 78.7468 43.0887C67.811 49.4176 59.1786 59.0694 54.1033 70.6404C49.028 82.2113 47.2492 95.1677 49.9998 107.5L49.8855 107.525L50.4626 110.148C43.7222 110.973 37.2219 113.169 31.363 116.602C25.5042 120.035 20.4103 124.632 16.3962 130.109C12.3822 135.586 9.53251 141.828 8.02319 148.449C6.51391 155.07 6.37729 161.93 7.62085 168.605C8.86444 175.281 11.4626 181.631 15.2546 187.264C19.0467 192.898 23.9526 197.695 29.6697 201.359C35.3867 205.024 41.7938 207.478 48.4958 208.571C54.9831 209.629 61.6133 209.39 68.0037 207.87C68.0953 201.677 69.9806 195.802 73.4773 190.747C70.0268 185.748 67.9999 179.695 67.9998 173.175C67.9998 164.834 71.3312 156.93 77.2195 151.117C76.2865 148.133 75.8152 145.047 75.8152 141.912C75.8152 126.831 86.6367 114.235 100.921 111.466C99.8289 108.744 99.2625 105.827 99.2625 102.834C99.2625 93.2807 105.067 85.0598 113.334 81.5066C127.106 70.5375 142.169 63.9998 153.727 63.9998C160.152 63.9998 165.849 67.1593 169.358 72.0027C172.867 67.1591 178.565 63.9998 184.99 63.9998C196.548 63.9999 211.611 70.5375 225.384 81.5066C233.65 85.0598 239.455 93.2807 239.455 102.834C239.455 105.827 238.888 108.744 237.797 111.466C252.081 114.235 262.901 126.831 262.901 141.912C262.901 145.047 262.429 148.133 261.497 151.117C267.385 156.93 270.718 164.834 270.718 173.175C270.717 179.694 268.69 185.748 265.24 190.747C268.74 195.807 270.625 201.69 270.713 207.889C276.439 209.639 282.443 210.365 288.446 210.014C296.012 209.573 303.382 207.438 310.012 203.766C316.643 200.095 322.364 194.98 326.753 188.802C331.141 182.623 334.087 175.537 335.37 168.067C336.653 160.598 336.242 152.935 334.167 145.646C332.092 138.357 328.405 131.627 323.381 125.953C318.356 120.279 312.121 115.806 305.136 112.865C298.152 109.924 290.595 108.59 283.025 108.961L283 102C288.848 84.7763 287.465 66.594 279.746 50.1238C272.027 33.6536 258.232 20.8098 241.254 14.2849ZM106.834 138.248C108.857 138.248 110.498 139.888 110.498 141.912C110.498 154.975 121.125 165.602 134.188 165.602C140.608 165.602 146.619 163.077 151.112 158.49C152.528 157.045 154.848 157.022 156.293 158.437C157.738 159.853 157.762 162.173 156.346 163.618C151.265 168.804 144.701 171.972 137.591 172.741C135.908 183.892 126.262 192.469 114.649 192.469C112.626 192.468 110.986 190.829 110.986 188.805C110.986 186.782 112.626 185.141 114.649 185.141C122.238 185.141 128.597 179.787 130.156 172.659C114.952 170.675 103.171 157.648 103.171 141.912C103.171 139.888 104.81 138.248 106.834 138.248ZM239.699 134.341C241.722 134.341 243.362 135.98 243.362 138.004C243.362 153.74 231.581 166.768 216.377 168.752C217.936 175.88 224.295 181.234 231.884 181.234C233.907 181.234 235.546 182.874 235.547 184.897C235.547 186.921 233.907 188.561 231.884 188.561C220.271 188.561 210.624 179.985 208.941 168.834C201.831 168.065 195.267 164.897 190.186 159.711C188.77 158.265 188.795 155.945 190.24 154.529C191.685 153.113 194.005 153.137 195.421 154.582C199.914 159.169 205.924 161.695 212.344 161.695C225.408 161.695 236.035 151.067 236.035 138.004C236.035 135.98 237.676 134.341 239.699 134.341Z" fill="black"/>
</svg>
